<?xml version="1.0" encoding="utf-8"?>
<!-- Generator: Adobe Illustrator 21.0.2, SVG Export Plug-In . SVG Version: 6.00 Build 0)  -->
<svg version="1.1" id="Layer_1" xmlns="http://www.w3.org/2000/svg" xmlns:xlink="http://www.w3.org/1999/xlink" x="0px" y="0px"
	 viewBox="0 0 351 35.6" style="enable-background:new 0 0 351 35.6;" xml:space="preserve">
<style type="text/css">
	.st0{fill:#FFFFFF;}
</style>
<g id="XMLID_15_">
	<path id="XMLID_370_" class="st0" d="M10.7,6.8H0V1c9.8,0,18,0,27.9,0v5.8H17.1v28h-6.4V6.8z"/>
	<path id="XMLID_366_" class="st0" d="M65.4,34.8h-7.6l-9.9-11.3h-6.1v11.3h-6.4V0.9c5.4,0,10.7,0,16.1,0c8,0,12.2,5.4,12.2,11.2
		c0,4.6-2.1,9.3-8.6,10.6l10.3,11.6V34.8z M41.8,6.9v10.8h9.7c4.1,0,5.8-2.7,5.8-5.4s-1.8-5.4-5.8-5.4H41.8z"/>
	<path id="XMLID_364_" class="st0" d="M71.7,34.8V1H78v33.8H71.7z"/>
	<path id="XMLID_357_" class="st0" d="M150.3,0.9h6.4v33.9h-4v0L134.9,12v22.8h-6.4V1h5.2l16.6,21V0.9z"/>
	<path id="XMLID_251_" class="st0" d="M191.3,9.2c-2.3-2.2-5.7-3.4-8.6-3.4c-7.3,0-11.7,5.5-11.7,12.5c0,5.6,3.2,11.3,11.7,11.3
		c2.7,0,5-0.6,7.6-2.7v-6h-8.7v-5.7h14.5v14.3c-3.3,3.8-7.5,6.1-13.5,6.1c-12.7,0-17.9-8.4-17.9-17.3c0-9.5,5.9-18.3,17.9-18.3
		c4.5,0,9.1,1.7,12.6,5.2L191.3,9.2z"/>
	<path id="XMLID_182_" class="st0" d="M234.7,1v19.4c0,10-6.1,15.1-14.7,15.1c-8.1,0-15-4.9-15-15.1V1h6.3v19.4
		c0,6.1,3.5,9.3,8.8,9.3c5.3,0,8.3-3.5,8.3-9.3V1H234.7z"/>
	<path id="XMLID_177_" class="st0" d="M251,1v27.9h17.4v5.9h-23.8V1H251z"/>
	<path id="XMLID_171_" class="st0" d="M346.9,34.8h-7.6l-9.9-11.3h-6.1v11.3h-6.4V0.9c5.4,0,10.7,0,16.1,0c8,0,12.2,5.4,12.2,11.2
		c0,4.6-2.1,9.3-8.6,10.6l10.2,11.6V34.8z M323.3,6.9v10.8h9.7c4.1,0,5.8-2.7,5.8-5.4S337,6.9,333,6.9H323.3z"/>
	<g id="XMLID_110_">
		<path id="XMLID_120_" class="st0" d="M102.8,8L91.1,34.8h-6.9L99.4,0.9h7l15.2,33.9h-7L102.8,8z M102.8,8"/>
		<path id="XMLID_117_" class="st0" d="M97.2,24.9l-2.3,5.2c8.8,3.8,17.7-4.5,28.8-1.9v-6C113.4,20.1,105.3,26.9,97.2,24.9z"/>
	</g>
	<g id="XMLID_37_">
		<path id="XMLID_89_" class="st0" d="M291.7,8l-11.8,26.8H273l15.2-33.9h7l15.2,33.9h-7L291.7,8z M291.7,8"/>
		<path id="XMLID_56_" class="st0" d="M286.1,24.9l-2.3,5.2c8.8,3.8,17.7-4.5,28.8-1.9v-6C302.3,20.1,294.1,26.9,286.1,24.9z"/>
	</g>
</g>
</svg>
